<svg width="247" height="77" viewBox="0 0 247 77" fill="none" xmlns="http://www.w3.org/2000/svg">
<path d="M2.4375 75V20H19.1875L23.8125 53.5312L28.4062 20H45.3125V75H35.25V35.375L28.9375 75H19.0625L12.375 35.375V75H2.4375ZM63.625 75.5C54.2917 75.5 49.625 70.6562 49.625 60.9688V42.1562C49.625 37.7396 50.8646 34.2188 53.3438 31.5938C55.8229 28.9479 59.25 27.625 63.625 27.625C68.0208 27.625 71.4583 28.9479 73.9375 31.5938C76.4167 34.2188 77.6562 37.7396 77.6562 42.1562V60.9688C77.6562 70.6562 72.9792 75.5 63.625 75.5ZM63.625 66.875C64.5625 66.875 65.2292 66.5417 65.625 65.875C66.0417 65.1875 66.25 64.3229 66.25 63.2812V40.375C66.25 37.6458 65.375 36.2812 63.625 36.2812C61.875 36.2812 61 37.6458 61 40.375V63.2812C61 64.3229 61.1979 65.1875 61.5938 65.875C62.0104 66.5417 62.6875 66.875 63.625 66.875ZM87.7812 75L80.25 28.125H91.4688L94.1562 59.4375L97.1875 28.125H108.375L100.719 75H87.7812ZM111.25 25.25V15.9375H122.438V25.25H111.25ZM111.25 75V28.125H122.438V75H111.25ZM140 75.5C136.667 75.5 134.01 74.875 132.031 73.625C130.052 72.375 128.635 70.5729 127.781 68.2188C126.927 65.8646 126.5 63.0312 126.5 59.7188V40.875C126.5 36.5208 127.75 33.2292 130.25 31C132.75 28.75 136.188 27.625 140.562 27.625C149.562 27.625 154.062 32.0417 154.062 40.875V44.2812C154.062 48.4062 154.021 51.1771 153.938 52.5938H137.688V61.6562C137.688 62.4896 137.74 63.3125 137.844 64.125C137.948 64.9167 138.177 65.5729 138.531 66.0938C138.906 66.6146 139.5 66.875 140.312 66.875C141.479 66.875 142.208 66.375 142.5 65.375C142.792 64.3542 142.938 63.0312 142.938 61.4062V56.9062H154.062V59.5625C154.062 63.0625 153.625 66 152.75 68.375C151.896 70.7292 150.438 72.5104 148.375 73.7188C146.333 74.9062 143.542 75.5 140 75.5ZM137.625 47.0312H142.938V40.7188C142.938 39.0312 142.729 37.8229 142.312 37.0938C141.896 36.3438 141.271 35.9688 140.438 35.9688C139.542 35.9688 138.844 36.3229 138.344 37.0312C137.865 37.7396 137.625 38.9688 137.625 40.7188V47.0312Z" fill="#1E1E1E"/>
<path d="M167.371 42V11.0625H173.559V36.7266H179.922V42H167.371ZM189.238 42.2812C183.988 42.2812 181.363 39.5566 181.363 34.1074V23.5254C181.363 21.041 182.061 19.0605 183.455 17.584C184.85 16.0957 186.777 15.3516 189.238 15.3516C191.711 15.3516 193.645 16.0957 195.039 17.584C196.434 19.0605 197.131 21.041 197.131 23.5254V34.1074C197.131 39.5566 194.5 42.2812 189.238 42.2812ZM189.238 37.4297C189.766 37.4297 190.141 37.2422 190.363 36.8672C190.598 36.4805 190.715 35.9941 190.715 35.4082V22.5234C190.715 20.9883 190.223 20.2207 189.238 20.2207C188.254 20.2207 187.762 20.9883 187.762 22.5234V35.4082C187.762 35.9941 187.873 36.4805 188.096 36.8672C188.33 37.2422 188.711 37.4297 189.238 37.4297ZM206.57 46.5703C205.352 46.5703 204.303 46.5059 203.424 46.377C202.557 46.2598 201.777 46.043 201.086 45.7266C200.395 45.4102 199.703 44.9648 199.012 44.3906L201.139 40.752C202.674 41.666 204.209 42.123 205.744 42.123C206.752 42.123 207.502 41.8008 207.994 41.1562C208.486 40.5117 208.732 39.6738 208.732 38.6426V36.0586C208.229 37.8633 206.887 38.7656 204.707 38.7656C203.453 38.7656 202.439 38.4668 201.666 37.8691C200.893 37.2715 200.33 36.4629 199.979 35.4434C199.627 34.4238 199.451 33.2871 199.451 32.0332V22.5586C199.451 21.1406 199.604 19.8926 199.908 18.8145C200.213 17.7246 200.746 16.875 201.508 16.2656C202.27 15.6562 203.336 15.3516 204.707 15.3516C205.867 15.3516 206.77 15.6445 207.414 16.2305C208.07 16.8164 208.51 17.6074 208.732 18.6035V15.6328H215.148V38.2383C215.148 41.2266 214.457 43.3594 213.074 44.6367C211.703 45.9258 209.535 46.5703 206.57 46.5703ZM207.256 34.0195C208.24 34.0195 208.732 33.1289 208.732 31.3477V22.3828C208.732 21.9023 208.592 21.4102 208.311 20.9062C208.041 20.4023 207.666 20.1504 207.186 20.1504C206.576 20.1504 206.195 20.3789 206.043 20.8359C205.891 21.2812 205.814 21.7969 205.814 22.3828V31.3477C205.814 31.9805 205.891 32.584 206.043 33.1582C206.207 33.7324 206.611 34.0195 207.256 34.0195Z" fill="#60BF15"/>
<path d="M179.388 50.052C179.388 50.412 179.34 50.76 179.244 51.096C179.148 51.432 178.98 51.732 178.74 51.996C178.644 52.14 178.476 52.332 178.236 52.572C177.996 52.788 177.672 53.1 177.264 53.508C176.256 54.348 175.296 55.236 174.384 56.172C173.496 57.108 172.632 58.092 171.792 59.124C171.504 59.46 171.216 59.808 170.928 60.168C170.64 60.528 170.412 60.9 170.244 61.284C170.076 61.668 169.992 62.076 169.992 62.508C170.016 62.94 170.196 63.384 170.532 63.84C171.132 64.68 171.768 65.484 172.44 66.252C173.112 67.02 173.832 67.776 174.6 68.52C175.056 69 175.512 69.468 175.968 69.924C176.448 70.38 176.904 70.836 177.336 71.292C177.912 71.868 178.26 72.48 178.38 73.128C178.5 73.752 178.44 74.304 178.2 74.784C177.96 75.264 177.564 75.612 177.012 75.828C176.484 76.044 175.848 76.008 175.104 75.72C174.72 75.552 174.348 75.324 173.988 75.036C173.628 74.772 173.28 74.472 172.944 74.136C172.608 73.776 172.284 73.416 171.972 73.056C171.66 72.696 171.372 72.36 171.108 72.048C166.596 67.08 164.34 63.792 164.34 62.184C164.34 60.96 165.216 59.184 166.968 56.856C167.64 56.016 168.384 55.14 169.2 54.228C170.016 53.292 170.928 52.368 171.936 51.456C172.56 50.832 173.196 50.22 173.844 49.62C174.516 48.996 175.248 48.468 176.04 48.036C176.376 47.868 176.736 47.796 177.12 47.82C177.528 47.82 177.9 47.916 178.236 48.108C178.572 48.276 178.848 48.528 179.064 48.864C179.28 49.2 179.388 49.596 179.388 50.052ZM185.324 75.54C185.036 75.54 184.76 75.492 184.496 75.396C184.232 75.3 184.004 75.168 183.812 75C183.62 74.832 183.476 74.628 183.38 74.388C183.284 74.148 183.26 73.872 183.308 73.56C183.164 73.128 183.152 72.744 183.272 72.408C183.392 72.048 183.548 71.688 183.74 71.328H183.704C184.544 69.456 185.36 67.62 186.152 65.82C186.968 63.996 187.82 62.184 188.708 60.384C189.5 58.704 190.232 57.12 190.904 55.632C191.576 54.144 192.236 52.68 192.884 51.24C193.004 50.976 193.148 50.712 193.316 50.448C193.484 50.184 193.676 49.98 193.892 49.836C194.108 49.668 194.36 49.56 194.648 49.512C194.936 49.464 195.284 49.524 195.692 49.692C196.316 49.956 196.772 50.328 197.06 50.808C197.372 51.288 197.468 51.84 197.348 52.464C197.012 53.328 196.736 54.036 196.52 54.588C196.328 55.116 196.124 55.608 195.908 56.064C195.716 56.52 195.5 56.988 195.26 57.468C195.02 57.948 194.708 58.572 194.324 59.34C193.964 60.108 193.508 61.08 192.956 62.256C192.428 63.408 191.756 64.896 190.939 66.72C190.508 67.704 190.064 68.64 189.608 69.528C189.176 70.416 188.744 71.304 188.312 72.192C188.168 72.456 188.012 72.78 187.844 73.164C187.676 73.524 187.496 73.92 187.304 74.352C187.112 74.76 186.836 75.06 186.476 75.252C186.116 75.444 185.732 75.54 185.324 75.54ZM200.786 50.052C200.786 49.596 200.894 49.2 201.11 48.864C201.326 48.528 201.602 48.276 201.938 48.108C202.274 47.916 202.634 47.82 203.018 47.82C203.426 47.796 203.798 47.868 204.134 48.036C204.926 48.468 205.646 48.996 206.294 49.62C206.966 50.22 207.614 50.832 208.238 51.456C209.246 52.368 210.158 53.292 210.974 54.228C211.79 55.14 212.534 56.016 213.206 56.856C214.958 59.184 215.834 60.96 215.834 62.184C215.834 63.792 213.578 67.08 209.066 72.048C208.802 72.36 208.514 72.696 208.202 73.056C207.89 73.416 207.566 73.776 207.23 74.136C206.894 74.472 206.546 74.772 206.186 75.036C205.826 75.324 205.454 75.552 205.07 75.72C204.326 76.008 203.678 76.044 203.126 75.828C202.598 75.612 202.214 75.264 201.974 74.784C201.734 74.304 201.674 73.752 201.794 73.128C201.914 72.48 202.262 71.868 202.838 71.292C203.27 70.836 203.714 70.38 204.17 69.924C204.65 69.468 205.118 69 205.574 68.52C206.342 67.776 207.062 67.02 207.734 66.252C208.406 65.484 209.042 64.68 209.642 63.84C209.954 63.384 210.122 62.94 210.146 62.508C210.17 62.076 210.098 61.668 209.93 61.284C209.762 60.9 209.534 60.528 209.246 60.168C208.958 59.808 208.67 59.46 208.382 59.124C207.542 58.092 206.666 57.108 205.754 56.172C204.866 55.236 203.918 54.348 202.91 53.508C202.502 53.1 202.178 52.788 201.938 52.572C201.698 52.332 201.53 52.14 201.434 51.996C201.194 51.732 201.026 51.432 200.93 51.096C200.834 50.76 200.786 50.412 200.786 50.052Z" fill="#A69E98"/>
</svg>
